<svg width="229" height="40" viewBox="0 0 229 40" fill="none" xmlns="http://www.w3.org/2000/svg">
<g clip-path="url(#clip0_2952_101)">
<path d="M60.4031 20.6863V7.93392H63.906V28.898H63.7945L51.2394 15.7528V28.5326H47.7348V7.57025H47.8463L60.4031 20.6863Z" fill="#004A98"/>
<path d="M80.4169 21.3295V22.5063H70.44C70.5807 24.7209 71.953 25.9543 74.3083 25.9543C75.9894 25.9543 77.2228 25.2527 77.8952 24.3572L80.1373 26.1224C78.7649 27.831 76.8591 28.8139 74.2517 28.8139C69.8808 28.8139 67.0212 25.7313 67.0212 21.4994C67.0212 17.2674 69.8516 14.1282 73.9429 14.1282C78.2589 14.1282 80.4169 17.3789 80.4169 21.3313M70.44 20.0979H77.0821C76.998 18.1646 75.8779 16.818 73.888 16.818C71.8981 16.818 70.5532 18.1354 70.4417 20.0979" fill="#004A98"/>
<path d="M95.497 29.0043H95.3855L91.4898 21.4616L87.5667 29.0043H87.4535L80.7822 14.334H84.3983L87.7622 22.5818L91.4332 14.7903H91.5447L95.19 22.5818L98.7477 14.334H102.336L95.497 29.0043Z" fill="#004A98"/>
<path d="M127.227 28.5325H123.724V19.5918H114.336V28.5325H110.833V7.93384H114.336V16.3977H123.724V7.93384H127.227V28.5325Z" fill="#004A98"/>
<path d="M145.028 21.4994C145.028 25.7313 141.918 28.8139 137.657 28.8139C133.396 28.8139 130.342 25.7313 130.342 21.4994C130.342 17.2674 133.425 14.1282 137.657 14.1282C141.889 14.1282 145.028 17.2383 145.028 21.4994ZM133.761 21.4994C133.761 24.021 135.386 25.8428 137.657 25.8428C139.928 25.8428 141.607 24.021 141.607 21.4994C141.607 18.9777 139.954 17.0993 137.657 17.0993C135.36 17.0993 133.761 18.9485 133.761 21.4994Z" fill="#004A98"/>
<path d="M155.941 17.4905H155.633C153.924 17.4905 152.83 18.3876 151.962 19.6193V28.5326H148.57V14.4061H151.598L151.793 16.2845C152.495 15.1626 153.895 14.1265 155.941 14.1265V17.4905Z" fill="#004A98"/>
<path d="M162.697 14.4078H159.305V28.5343H162.697V14.4078Z" fill="#004A98"/>
<path d="M178.029 14.5193L171.471 25.6747H178V28.5325H166.285V28.421L172.843 17.2657H166.705V14.4078H178.029V14.5193Z" fill="#004A98"/>
<path d="M194.313 21.4994C194.313 25.7313 191.203 28.8139 186.944 28.8139C182.685 28.8139 179.629 25.7313 179.629 21.4994C179.629 17.2674 182.712 14.1282 186.944 14.1282C191.176 14.1282 194.313 17.2383 194.313 21.4994ZM183.048 21.4994C183.048 24.021 184.674 25.8428 186.944 25.8428C189.213 25.8428 190.895 24.021 190.895 21.4994C190.895 18.9777 189.241 17.0993 186.944 17.0993C184.647 17.0993 183.048 18.9485 183.048 21.4994Z" fill="#004A98"/>
<path d="M209.87 20.266V28.5343H206.507V20.4632C206.507 18.5849 205.414 17.324 203.676 17.324C202.191 17.324 201.182 18.2212 200.48 19.2865V28.536H197.089V14.4096H200.144L200.285 16.0358C201.041 15.0271 202.499 14.1299 204.544 14.1299C207.963 14.1299 209.869 16.5675 209.869 20.2677" fill="#004A98"/>
<path d="M223.467 15.5571L222.149 18.0513C221.252 17.4355 219.991 16.8746 218.422 16.8746C217.104 16.8746 216.264 17.2948 216.264 18.2761C216.264 19.2007 216.936 19.5094 218.983 19.9846C222.179 20.7686 223.662 22.1152 223.662 24.244C223.662 26.9904 221.391 28.8121 217.749 28.8121C215.619 28.8121 213.658 28.2237 212.368 27.1859L213.77 24.6351C214.806 25.5031 216.152 26.064 217.777 26.064C219.29 26.064 220.244 25.5872 220.244 24.5785C220.244 23.5698 219.571 23.177 217.609 22.7001C214.301 21.9436 212.9 20.7668 212.9 18.5797C212.9 15.8333 215.03 14.123 218.504 14.123C220.439 14.123 222.288 14.7114 223.465 15.552" fill="#004A98"/>
<path d="M162.697 9.22729H159.305V12.1675H162.697V9.22729Z" fill="#004A98"/>
<path d="M228.05 11.6615C228.05 12.8726 227.1 13.8229 225.863 13.8229C224.626 13.8229 223.662 12.8726 223.662 11.6615C223.662 10.4504 224.638 9.52582 225.863 9.52582C227.088 9.52582 228.05 10.4762 228.05 11.6615ZM224.208 11.6615C224.208 12.6118 224.911 13.3666 225.875 13.3666C226.839 13.3666 227.503 12.6118 227.503 11.6735C227.503 10.7352 226.814 9.95467 225.862 9.95467C224.909 9.95467 224.208 10.7232 224.208 11.6598M225.524 12.78H225.03V10.6443C225.225 10.6048 225.498 10.5791 225.85 10.5791C226.253 10.5791 226.436 10.6443 226.592 10.7352C226.709 10.8261 226.8 10.9959 226.8 11.2035C226.8 11.4385 226.618 11.6203 226.357 11.6975V11.7233C226.567 11.8022 226.683 11.9583 226.748 12.2447C226.814 12.5707 226.853 12.701 226.905 12.7782H226.371C226.306 12.6993 226.266 12.5038 226.201 12.2568C226.162 12.0217 226.031 11.9188 225.759 11.9188H225.524V12.7782V12.78ZM225.537 11.5689H225.772C226.047 11.5689 226.266 11.478 226.266 11.2567C226.266 11.0611 226.124 10.9307 225.81 10.9307C225.68 10.9307 225.589 10.9445 225.537 10.9565V11.5689Z" fill="#004A98"/>
<path d="M0 14.1557C2.72408 16.2519 6.45681 18.0668 10.3851 19.2556L12.5414 15.4869C9.05052 15.2707 5.76722 14.3204 2.84072 12.7885L0 14.1557Z" fill="#7BADD3"/>
<path d="M12.6375 22.0844C15.8316 22.6487 19.5317 22.412 22.8545 21.6932L21.8269 27.62C18.2314 27.5016 14.497 26.7863 11.1776 25.5684L12.6375 22.0861V22.0844Z" fill="#7BADD3"/>
<path d="M25.6129 27.3901C28.9185 26.5015 32.6323 24.8376 35.7561 22.1478L35.9671 13.2277C33.1418 16.5247 29.4417 19.151 26.311 20.7086L25.6129 27.3901Z" fill="#004A98"/>
<path d="M24.7586 35.4165C28.0779 35.3599 32.1812 34.8556 35.4971 33.1076L35.6789 25.4019C32.6186 27.6508 28.5273 29.2685 25.3573 29.898L24.7586 35.4165Z" fill="#7BADD3"/>
<path d="M26.582 17.3841C29.9597 15.6001 33.092 12.8194 36.0683 8.98203L36.281 -0.00158691C34.4798 4.63003 31.2926 8.55489 27.2442 11.2893L26.5837 17.3841H26.582Z" fill="#EB460E"/>
<path d="M13.5243 19.9761C16.6584 20.2935 20.1184 19.8955 23.3571 18.7067L24.3297 12.9738C21.5953 14.3101 18.5762 15.1472 15.3924 15.3634L13.5226 19.9761H13.5243Z" fill="#004A98"/>
<path d="M124.98 31.3459L123.527 38.2744H127.634L127.301 39.8458H121.326L123.1 31.3459H124.98Z" fill="#7BADD3"/>
<path d="M129.93 37.2863V37.5368C129.93 37.8936 130.042 38.1835 130.263 38.4048C130.485 38.6261 130.826 38.7376 131.287 38.7376C131.454 38.7376 131.603 38.7118 131.733 38.6604C131.865 38.6089 131.979 38.5437 132.08 38.4648C132.179 38.3859 132.265 38.2933 132.342 38.1904C132.418 38.0874 132.486 37.9879 132.55 37.8936H134.24C134.104 38.2435 133.946 38.5489 133.763 38.8096C133.581 39.0721 133.363 39.2917 133.109 39.4701C132.855 39.6485 132.558 39.7823 132.222 39.868C131.884 39.9555 131.493 40.0001 131.049 40.0001C130.636 40.0001 130.262 39.9452 129.924 39.8337C129.586 39.7222 129.299 39.5541 129.061 39.3277C128.822 39.1012 128.639 38.8216 128.507 38.4888C128.376 38.1561 128.311 37.7667 128.311 37.3224C128.311 36.83 128.39 36.3566 128.55 35.9003C128.709 35.444 128.932 35.0391 129.222 34.6858C129.512 34.3324 129.867 34.0511 130.287 33.8418C130.708 33.6308 131.181 33.5262 131.704 33.5262C132.133 33.5262 132.524 33.581 132.876 33.6925C133.229 33.8041 133.531 33.9722 133.782 34.1986C134.032 34.425 134.226 34.7064 134.365 35.0443C134.504 35.3822 134.574 35.7733 134.574 36.2176C134.574 36.5195 134.542 36.8403 134.478 37.1817H129.942C129.934 37.2212 129.93 37.2572 129.93 37.2881M132.9 35.6395C132.872 35.4852 132.819 35.3445 132.739 35.2176C132.66 35.0906 132.545 34.9894 132.394 34.9139C132.243 34.8384 132.046 34.8007 131.799 34.8007C131.552 34.8007 131.349 34.8367 131.167 34.9071C130.984 34.9791 130.826 35.0735 130.69 35.1935C130.555 35.3119 130.442 35.4508 130.351 35.6104C130.26 35.7699 130.183 35.9363 130.119 36.1096H132.939C132.939 35.9517 132.926 35.7939 132.898 35.6395" fill="#7BADD3"/>
<path d="M136.097 34.5897C136.279 34.3324 136.502 34.1232 136.765 33.9653C137.027 33.8075 137.32 33.6943 137.646 33.6257C137.971 33.5588 138.309 33.5245 138.659 33.5245C138.936 33.5245 139.226 33.5451 139.528 33.5845C139.83 33.624 140.108 33.7012 140.362 33.8161C140.616 33.931 140.825 34.094 140.986 34.3033C141.149 34.5143 141.226 34.7939 141.218 35.1421C141.218 35.4354 141.175 35.7802 141.088 36.1782L140.54 38.6536C140.508 38.7651 140.487 38.9023 140.475 39.0635C140.463 39.2265 140.458 39.3672 140.458 39.4855C140.458 39.5885 140.477 39.7068 140.518 39.8423H138.828V39.2351C138.598 39.4975 138.317 39.6897 137.983 39.8132C137.65 39.9367 137.305 39.9984 136.948 39.9984C136.615 39.9984 136.324 39.9538 136.073 39.8681C135.823 39.7806 135.615 39.6639 135.449 39.5164C135.283 39.3689 135.159 39.1991 135.08 39.0052C135.001 38.8114 134.962 38.6072 134.962 38.3928C134.962 37.7976 135.166 37.3224 135.574 36.9639C135.982 36.6071 136.561 36.3858 137.307 36.2983C137.703 36.2503 138.048 36.216 138.343 36.1919C138.636 36.1696 138.88 36.1302 139.075 36.0787C139.269 36.0273 139.415 35.9518 139.509 35.8523C139.604 35.7528 139.652 35.6053 139.652 35.4063C139.652 35.2485 139.616 35.1215 139.545 35.0255C139.473 34.9311 139.384 34.8539 139.278 34.799C139.17 34.7441 139.055 34.7064 138.933 34.6858C138.809 34.6669 138.693 34.6566 138.581 34.6566C138.279 34.6566 138.01 34.7304 137.772 34.8762C137.533 35.0237 137.386 35.2519 137.331 35.5607H135.747C135.802 35.1713 135.922 34.8488 136.104 34.5897M138.628 37.1251C138.382 37.1526 138.135 37.1749 137.89 37.1903C137.73 37.2058 137.576 37.2315 137.425 37.2675C137.274 37.3035 137.142 37.3567 137.027 37.4288C136.912 37.5008 136.82 37.5969 136.748 37.7204C136.675 37.8439 136.641 38 136.641 38.1904C136.641 38.4203 136.734 38.5935 136.921 38.7085C137.108 38.8234 137.324 38.8817 137.569 38.8817C137.832 38.8817 138.051 38.8405 138.23 38.7565C138.408 38.6724 138.559 38.5661 138.683 38.4357C138.806 38.3053 138.904 38.1561 138.974 37.9897C139.046 37.8233 139.105 37.6569 139.153 37.4905L139.319 36.8953C139.105 37.0222 138.875 37.0994 138.629 37.1268" fill="#7BADD3"/>
<path d="M144.608 33.6909L144.357 34.7973L144.381 34.8213C144.572 34.3925 144.86 34.07 145.244 33.8521C145.628 33.6343 146.047 33.5245 146.5 33.5245C146.675 33.5245 146.85 33.5365 147.023 33.5605L146.678 35.2039C146.56 35.1798 146.44 35.1558 146.321 35.1318C146.201 35.1078 146.083 35.0958 145.964 35.0958C145.639 35.0958 145.364 35.1507 145.138 35.2622C144.911 35.3737 144.721 35.5246 144.566 35.7151C144.412 35.9055 144.288 36.1216 144.198 36.3635C144.107 36.6054 144.033 36.8575 143.978 37.12L143.407 39.8458H141.729L143.002 33.6909H144.609H144.608Z" fill="#7BADD3"/>
<path d="M149.464 33.6909L149.273 34.5486H149.298C149.845 33.8658 150.563 33.5245 151.452 33.5245C152.651 33.5245 153.25 34.0768 153.25 35.1799C153.25 35.2433 153.241 35.3239 153.226 35.4234C153.21 35.5229 153.191 35.6241 153.173 35.7271C153.154 35.83 153.133 35.9278 153.113 36.0187C153.092 36.1096 153.078 36.1834 153.071 36.24L152.31 39.8475H150.62L151.37 36.24C151.385 36.1456 151.407 36.0187 151.435 35.8592C151.462 35.6996 151.476 35.5778 151.476 35.4903C151.476 35.3085 151.39 35.1575 151.22 35.0375C151.051 34.9191 150.865 34.8591 150.668 34.8591C150.414 34.8591 150.19 34.9088 149.996 35.0083C149.802 35.1078 149.634 35.2365 149.495 35.396C149.356 35.5555 149.241 35.7374 149.15 35.9432C149.059 36.1491 148.989 36.3601 148.941 36.5745L148.251 39.8475H146.573L147.846 33.6926H149.466L149.464 33.6909Z" fill="#7BADD3"/>
<path d="M163.498 39.8458L163.283 33.7749H163.259L160.616 39.8458H158.736L158.152 31.3459H160.022L160.141 37.5711H160.165L162.854 31.3459H164.64L164.855 37.5471H164.879L167.472 31.3459H169.342L165.354 39.8458H163.498Z" fill="#7BADD3"/>
<path d="M171.841 31.3459L171.21 34.4045H171.234C171.298 34.317 171.389 34.2226 171.509 34.1197C171.627 34.0168 171.771 33.9207 171.938 33.8332C172.104 33.7457 172.298 33.672 172.521 33.6137C172.742 33.5536 172.993 33.5245 173.27 33.5245C174.469 33.5245 175.068 34.0768 175.068 35.1798C175.068 35.2433 175.06 35.3239 175.044 35.4234C175.029 35.5229 175.01 35.6241 174.991 35.7271C174.97 35.83 174.952 35.9278 174.931 36.0187C174.91 36.1096 174.897 36.1834 174.89 36.24L174.128 39.8475H172.438L173.188 36.24C173.204 36.1456 173.226 36.0187 173.253 35.8591C173.281 35.6996 173.294 35.5778 173.294 35.4903C173.294 35.3085 173.209 35.1575 173.039 35.0375C172.869 34.9191 172.684 34.8591 172.486 34.8591C172.233 34.8591 172.008 34.9088 171.814 35.0083C171.62 35.1078 171.452 35.2364 171.313 35.396C171.174 35.5555 171.059 35.7373 170.968 35.9432C170.877 36.149 170.807 36.36 170.761 36.5745L170.069 39.8475H168.392L170.154 31.3493H171.843L171.841 31.3459Z" fill="#7BADD3"/>
<path d="M176.864 34.5897C177.046 34.3324 177.269 34.1232 177.531 33.9653C177.794 33.8075 178.087 33.6943 178.411 33.6257C178.737 33.5588 179.074 33.5245 179.424 33.5245C179.701 33.5245 179.991 33.5451 180.293 33.5845C180.595 33.624 180.873 33.7012 181.127 33.8161C181.381 33.931 181.588 34.094 181.751 34.3033C181.914 34.5143 181.992 34.7939 181.983 35.1421C181.983 35.4354 181.94 35.7802 181.853 36.1782L181.305 38.6536C181.273 38.7651 181.252 38.9023 181.24 39.0635C181.228 39.2265 181.223 39.3672 181.223 39.4855C181.223 39.5885 181.242 39.7068 181.283 39.8423H179.593V39.2351C179.363 39.4975 179.082 39.6897 178.748 39.8132C178.415 39.9367 178.07 39.9984 177.713 39.9984C177.38 39.9984 177.087 39.9538 176.838 39.8681C176.588 39.7806 176.38 39.6639 176.214 39.5164C176.048 39.3689 175.924 39.1991 175.845 39.0052C175.766 38.8114 175.727 38.6072 175.727 38.3928C175.727 37.7976 175.931 37.3224 176.339 36.9639C176.747 36.6071 177.326 36.3858 178.072 36.2983C178.468 36.2503 178.813 36.216 179.108 36.1919C179.401 36.1696 179.645 36.1302 179.84 36.0787C180.034 36.0273 180.18 35.9518 180.274 35.8523C180.369 35.7528 180.417 35.6053 180.417 35.4063C180.417 35.2485 180.381 35.1215 180.309 35.0255C180.237 34.9311 180.147 34.8539 180.041 34.799C179.933 34.7441 179.818 34.7064 179.696 34.6858C179.573 34.6669 179.456 34.6566 179.345 34.6566C179.043 34.6566 178.773 34.7304 178.535 34.8762C178.297 35.0237 178.149 35.2519 178.094 35.5607H176.511C176.567 35.1713 176.686 34.8488 176.868 34.5897M179.391 37.1251C179.146 37.1526 178.899 37.1749 178.653 37.1903C178.496 37.2058 178.339 37.2315 178.188 37.2675C178.037 37.3035 177.905 37.3567 177.79 37.4288C177.676 37.5008 177.583 37.5969 177.511 37.7204C177.439 37.8439 177.405 38 177.405 38.1904C177.405 38.4203 177.497 38.5935 177.684 38.7085C177.869 38.8234 178.087 38.8817 178.333 38.8817C178.593 38.8817 178.815 38.8405 178.993 38.7565C179.171 38.6724 179.322 38.5661 179.446 38.4357C179.569 38.3053 179.665 38.1561 179.737 37.9897C179.81 37.8233 179.868 37.6569 179.916 37.4905L180.082 36.8953C179.868 37.0222 179.638 37.0994 179.393 37.1268" fill="#7BADD3"/>
<path d="M187.148 33.6908L186.886 34.8213H185.683L185.052 37.8816C185.036 37.945 185.024 38.0034 185.016 38.0548C185.007 38.1063 185.004 38.144 185.004 38.168C185.004 38.2795 185.021 38.3636 185.057 38.4236C185.093 38.4837 185.138 38.5283 185.194 38.5609C185.249 38.5935 185.311 38.6106 185.379 38.614C185.446 38.6175 185.512 38.6192 185.575 38.6192C185.783 38.6192 185.983 38.6072 186.182 38.5832L185.896 39.88C185.721 39.8955 185.546 39.9092 185.373 39.9212C185.198 39.9332 185.019 39.9383 184.837 39.9383C184.638 39.9383 184.443 39.9212 184.247 39.8852C184.053 39.8491 183.879 39.7857 183.724 39.6948C183.57 39.6038 183.446 39.4786 183.355 39.3208C183.264 39.1613 183.222 38.9554 183.23 38.7015C183.23 38.6226 183.239 38.5334 183.254 38.4339C183.27 38.3344 183.29 38.2298 183.314 38.1183L184.004 34.8213H182.897L183.16 33.6908H184.242L184.623 31.8227H186.313L185.932 33.6908H187.146H187.148Z" fill="#7BADD3"/>
<path d="M198.564 31.3459L198.242 32.9172H193.624L193.243 34.739H197.516L197.206 36.1902H192.934L192.493 38.2744H197.183L196.849 39.8458H190.303L192.076 31.3459H198.564Z" fill="#7BADD3"/>
<path d="M199.35 34.5897C199.532 34.3324 199.755 34.1232 200.015 33.9653C200.278 33.8075 200.571 33.6943 200.897 33.6257C201.221 33.5588 201.559 33.5245 201.909 33.5245C202.187 33.5245 202.477 33.5451 202.779 33.5845C203.081 33.624 203.359 33.7012 203.613 33.8161C203.866 33.931 204.074 34.094 204.237 34.3033C204.4 34.5143 204.477 34.7939 204.469 35.1421C204.469 35.4354 204.426 35.7802 204.338 36.1782L203.791 38.6536C203.758 38.7651 203.736 38.9023 203.726 39.0635C203.714 39.2265 203.709 39.3672 203.709 39.4855C203.709 39.5885 203.728 39.7068 203.769 39.8423H202.079V39.2351C201.849 39.4975 201.568 39.6897 201.233 39.8132C200.901 39.9367 200.556 39.9984 200.197 39.9984C199.864 39.9984 199.573 39.9538 199.322 39.8681C199.072 39.7823 198.864 39.6639 198.698 39.5164C198.532 39.3689 198.408 39.1991 198.329 39.0052C198.25 38.8114 198.211 38.6072 198.211 38.3928C198.211 37.7976 198.415 37.3224 198.823 36.9639C199.231 36.6071 199.81 36.3858 200.556 36.2983C200.952 36.2503 201.297 36.216 201.592 36.1919C201.885 36.1696 202.129 36.1302 202.324 36.0787C202.518 36.0273 202.664 35.9518 202.758 35.8523C202.854 35.7528 202.901 35.6053 202.901 35.4063C202.901 35.2485 202.865 35.1215 202.794 35.0255C202.722 34.9311 202.633 34.8539 202.527 34.799C202.42 34.7441 202.304 34.7064 202.182 34.6858C202.058 34.6669 201.942 34.6566 201.83 34.6566C201.528 34.6566 201.259 34.7304 201.021 34.8762C200.782 35.0237 200.635 35.2519 200.58 35.5607H198.996C199.051 35.1713 199.171 34.8488 199.353 34.5897M201.877 37.1251C201.631 37.1526 201.384 37.1749 201.139 37.1903C200.981 37.2058 200.825 37.2315 200.674 37.2675C200.523 37.3035 200.391 37.3567 200.276 37.4288C200.161 37.5008 200.069 37.5969 199.997 37.7204C199.924 37.8439 199.89 38 199.89 38.1904C199.89 38.4203 199.983 38.5935 200.17 38.7085C200.357 38.8234 200.573 38.8817 200.818 38.8817C201.079 38.8817 201.3 38.8405 201.479 38.7565C201.657 38.6724 201.808 38.5661 201.932 38.4357C202.055 38.3053 202.153 38.1561 202.223 37.9897C202.295 37.8233 202.354 37.6569 202.402 37.4905L202.568 36.8953C202.354 37.0222 202.124 37.0994 201.877 37.1268" fill="#7BADD3"/>
<path d="M207.86 33.6909L207.61 34.7973L207.634 34.8213C207.824 34.3925 208.112 34.07 208.496 33.8521C208.882 33.6343 209.299 33.5245 209.752 33.5245C209.927 33.5245 210.1 33.5365 210.275 33.5605L209.93 35.2039C209.81 35.1798 209.692 35.1558 209.574 35.1318C209.455 35.1078 209.335 35.0958 209.217 35.0958C208.891 35.0958 208.615 35.1507 208.39 35.2622C208.164 35.3737 207.973 35.5246 207.819 35.7151C207.664 35.9055 207.541 36.1216 207.45 36.3635C207.359 36.6054 207.285 36.8575 207.23 37.12L206.659 39.8458H204.982L206.254 33.6909H207.862H207.86Z" fill="#7BADD3"/>
<path d="M212.716 33.6909L212.526 34.5486H212.55C213.097 33.8658 213.816 33.5245 214.704 33.5245C215.904 33.5245 216.502 34.0768 216.502 35.1799C216.502 35.2433 216.495 35.3239 216.478 35.4234C216.463 35.5229 216.444 35.6241 216.425 35.7271C216.406 35.83 216.386 35.9278 216.367 36.0187C216.346 36.1096 216.332 36.1834 216.326 36.24L215.564 39.8475H213.874L214.624 36.24C214.639 36.1456 214.662 36.0187 214.689 35.8592C214.717 35.6996 214.732 35.5778 214.732 35.4903C214.732 35.3085 214.646 35.1575 214.476 35.0375C214.307 34.9191 214.121 34.8591 213.924 34.8591C213.67 34.8591 213.445 34.9088 213.252 35.0083C213.058 35.1078 212.891 35.2365 212.752 35.396C212.613 35.5555 212.498 35.7374 212.408 35.9432C212.317 36.1491 212.246 36.3601 212.198 36.5745L211.509 39.8475H209.831L211.104 33.6926H212.723L212.716 33.6909Z" fill="#7BADD3"/>
<path d="M221.185 34.8762C221.04 34.7287 220.798 34.6566 220.465 34.6566C220.163 34.6566 219.916 34.703 219.722 34.7939C219.527 34.8848 219.43 35.0426 219.43 35.2639C219.43 35.3994 219.489 35.5144 219.602 35.6087C219.717 35.7048 219.918 35.7957 220.204 35.8832L221.05 36.1576C221.28 36.2297 221.492 36.312 221.686 36.4081C221.88 36.5024 222.05 36.6208 222.197 36.7597C222.345 36.8987 222.46 37.0634 222.542 37.2538C222.626 37.4442 222.667 37.6655 222.667 37.9194C222.667 38.3002 222.582 38.6244 222.412 38.8886C222.242 39.1545 222.017 39.3706 221.739 39.537C221.461 39.7034 221.148 39.8218 220.799 39.8938C220.451 39.9659 220.098 40.0019 219.741 40.0019C219.439 40.0019 219.134 39.9693 218.825 39.9075C218.516 39.8441 218.237 39.7394 217.986 39.5919C217.736 39.4461 217.531 39.2505 217.374 39.0087C217.214 38.7668 217.135 38.4631 217.135 38.0978V37.8473H218.695V38.0497C218.695 38.1921 218.731 38.3156 218.803 38.4186C218.875 38.5215 218.967 38.6072 219.082 38.6741C219.197 38.7428 219.328 38.7942 219.475 38.8285C219.623 38.8646 219.767 38.8817 219.909 38.8817C220.036 38.8817 220.163 38.8697 220.29 38.8457C220.417 38.8217 220.532 38.7805 220.635 38.7205C220.738 38.6604 220.822 38.5849 220.885 38.494C220.949 38.4031 220.979 38.2847 220.979 38.1424C220.979 37.9279 220.925 37.777 220.813 37.6895C220.702 37.602 220.556 37.5265 220.372 37.4631L219.075 37.0479C218.861 36.9759 218.672 36.9004 218.511 36.8215C218.348 36.7426 218.209 36.6431 218.094 36.5247C217.979 36.4047 217.892 36.2623 217.832 36.0959C217.772 35.9295 217.742 35.7236 217.742 35.4766C217.742 35.1112 217.828 34.8059 217.998 34.5606C218.17 34.3153 218.389 34.1146 218.659 33.9602C218.93 33.8058 219.225 33.6943 219.545 33.6257C219.868 33.5588 220.175 33.5245 220.468 33.5245C220.801 33.5245 221.124 33.5519 221.432 33.6085C221.743 33.6651 222.014 33.7646 222.249 33.9122C222.482 34.0597 222.667 34.2587 222.801 34.5126C222.937 34.7664 223 35.0924 222.992 35.4886H221.42C221.412 35.2262 221.335 35.022 221.189 34.8762" fill="#7BADD3"/>
</g>
<defs>
<clipPath id="clip0_2952_101">
<rect width="228.05" height="40" fill="white"/>
</clipPath>
</defs>
</svg>